<svg width="32" height="31" viewBox="0 0 32 31" fill="none" xmlns="http://www.w3.org/2000/svg">
<g id="32 / chat">
<path id="icon" d="M10.8869 18.5474C10.8869 18.2564 10.7097 17.9947 10.4395 17.8867C10.1766 17.7815 9.56341 17.3921 9.01781 16.6881C8.48561 16.0014 8.04014 15.0441 8.04014 13.8029C8.04014 10.6836 11.3683 7.87226 15.8686 7.87226C18.1082 7.87226 20.0854 8.47307 21.4835 9.50985C22.8661 10.5352 23.6971 11.9919 23.6971 13.8029C23.6971 15.4685 22.9789 16.8027 21.7281 17.7409C20.459 18.6927 18.6054 19.2591 16.3431 19.2591C16.1983 19.2591 16.057 19.3033 15.938 19.3857L10.8869 22.8826V18.5474Z" stroke="white" stroke-width="1.42336" stroke-linecap="round" stroke-linejoin="round"/>
</g>
</svg>
