<svg width="24" height="24" viewBox="0 0 24 24" fill="none" xmlns="http://www.w3.org/2000/svg">
<g id="icon/fav">
<path id="Union" fill-rule="evenodd" clip-rule="evenodd" d="M15 8.25L12.8078 2.76943L12 0.75L11.1922 2.76944L9 8.25H3.82193H1.5L3.27239 9.75L7.5 13.3279L5.90461 18.8398L5.25 21.1014L7.19542 19.7753L12 16.5L16.7924 19.695L18.75 21L18.074 18.7465L16.5 13.5L20.7857 9.75L22.5 8.25H20.2221H15ZM18.5078 9.75H15H13.9845L13.6073 8.80709L12 4.78887L10.3927 8.80708L10.0156 9.75H9H5.59433L8.46902 12.1829L9.21118 12.811L8.94086 13.7449L7.85003 17.5136L11.1551 15.2606L11.9907 14.691L12.8321 15.2519L16.1164 17.4415L15.0633 13.931L14.7859 13.0066L15.5122 12.3711L18.5078 9.75Z" fill="black" fill-opacity="0.9"/>
</g>
</svg>
