<svg width="31" height="32" viewBox="0 0 31 32" fill="none" xmlns="http://www.w3.org/2000/svg">
<g id="icon/hamburger">
<path id="icon" fill-rule="evenodd" clip-rule="evenodd" d="M7.17153 10.1241C7.17153 9.73102 7.49016 9.41239 7.88321 9.41239H22.1168C22.5098 9.41239 22.8285 9.73102 22.8285 10.1241C22.8285 10.5171 22.5098 10.8357 22.1168 10.8357H7.88321C7.49016 10.8357 7.17153 10.5171 7.17153 10.1241ZM7.17153 15.8175C7.17153 15.4245 7.49016 15.1058 7.88321 15.1058H22.1168C22.5098 15.1058 22.8285 15.4245 22.8285 15.8175C22.8285 16.2105 22.5098 16.5292 22.1168 16.5292H7.88321C7.49016 16.5292 7.17153 16.2105 7.17153 15.8175ZM7.88321 20.7993C7.49016 20.7993 7.17153 21.1179 7.17153 21.5109C7.17153 21.904 7.49016 22.2226 7.88321 22.2226H22.1168C22.5098 22.2226 22.8285 21.904 22.8285 21.5109C22.8285 21.1179 22.5098 20.7993 22.1168 20.7993H7.88321Z" fill="#1B141F"/>
</g>
</svg>
