<svg width="32" height="28" viewBox="0 0 32 28" fill="none" xmlns="http://www.w3.org/2000/svg">
<g id="Heart">
<path id="Border" d="M15.9719 8.57751L16.3873 8.99416L16.8024 8.57731L17.8965 7.47885C18.6615 6.71109 19.6989 6.27994 20.7804 6.27967C21.8618 6.27941 22.8994 6.71005 23.6648 7.47743C24.4303 8.24488 24.8608 9.28629 24.8611 10.3727C24.8614 11.459 24.4314 12.5007 23.6662 13.2685L23.6659 13.2688L22.6797 14.2602L22.6792 14.2607L16.3892 20.5699L9.10994 13.2684C8.34485 12.501 7.91471 11.4597 7.91471 10.3737C7.91471 9.2876 8.34485 8.24637 9.10994 7.47895C9.87496 6.71159 10.9122 6.28082 11.9933 6.28082C13.0744 6.28082 14.1117 6.71159 14.8767 7.47895L15.9719 8.57751Z" stroke="white" stroke-width="1.1725"/>
</g>
</svg>
