<svg width="25" height="24" viewBox="0 0 25 24" fill="none" xmlns="http://www.w3.org/2000/svg">
<g id="magnify" opacity="0.3">
<path id="Vector" opacity="0.5" d="M10.1825 3C11.9064 3 13.5597 3.68482 14.7787 4.90381C15.9977 6.12279 16.6825 7.77609 16.6825 9.5C16.6825 11.11 16.0925 12.59 15.1225 13.73L15.3925 14H16.1825L21.1825 19L19.6825 20.5L14.6825 15.5V14.71L14.4125 14.44C13.2725 15.41 11.7925 16 10.1825 16C8.45859 16 6.80529 15.3152 5.5863 14.0962C4.36731 12.8772 3.6825 11.2239 3.6825 9.5C3.6825 7.77609 4.36731 6.12279 5.5863 4.90381C6.80529 3.68482 8.45859 3 10.1825 3M10.1825 5C7.6825 5 5.6825 7 5.6825 9.5C5.6825 12 7.6825 14 10.1825 14C12.6825 14 14.6825 12 14.6825 9.5C14.6825 7 12.6825 5 10.1825 5Z" fill="black"/>
</g>
</svg>
